<?xml version="1.0" standalone="no"?>
<!DOCTYPE svg PUBLIC "-//W3C//DTD SVG 20010904//EN"
 "http://www.w3.org/TR/2001/REC-SVG-20010904/DTD/svg10.dtd">
<svg version="1.0" xmlns="http://www.w3.org/2000/svg"
 width="256.000000pt" height="256.000000pt" viewBox="0 0 256.000000 256.000000"
 preserveAspectRatio="xMidYMid meet">

<g transform="translate(0.000000,256.000000) scale(0.100000,-0.100000)"
fill="#000000" stroke="none">
<path d="M403 2505 c-195 -36 -342 -164 -388 -340 -23 -89 -23 -1671 0 -1760
44 -168 164 -280 355 -332 60 -17 134 -18 930 -18 l865 0 77 26 c141 48 234
126 289 242 l29 62 0 900 0 900 -29 62 c-55 116 -143 189 -286 240 l-80 28
-845 2 c-662 1 -861 -1 -917 -12z m165 -1 c14 -4 22 -14 22 -28 0 -21 -8 -23
-89 -34 -115 -16 -111 -16 -111 12 0 30 8 36 68 46 62 10 83 11 110 4z m1039
0 c74 -6 90 -10 89 -23 0 -9 -5 -19 -11 -23 -12 -9 -807 -11 -830 -2 -13 5
-14 9 -3 15 11 7 10 11 -2 18 -10 7 5 11 50 14 121 6 617 7 707 1z m564 -16
c30 -8 39 -16 39 -33 0 -11 6 -27 13 -34 10 -11 8 -12 -9 -7 -12 4 -59 15
-105 24 -72 16 -84 22 -87 40 -3 20 1 22 54 22 31 0 74 -5 95 -12z m-2041
-246 c21 -17 21 -19 7 -55 -17 -41 -19 -42 -48 -27 -22 12 -24 37 -7 75 13 30
19 31 48 7z m2379 -30 c8 -27 6 -34 -12 -47 -12 -8 -25 -15 -29 -15 -7 0 -41
71 -36 75 60 40 62 39 77 -13z m-866 -29 c-7 -2 -19 -2 -25 0 -7 3 -2 5 12 5
14 0 19 -2 13 -5z m-67 -109 c15 -4 50 -7 80 -8 30 0 54 -3 54 -5 0 -2 -17
-33 -37 -68 -27 -46 -42 -62 -53 -57 -27 12 -149 31 -156 25 -10 -9 3 41 27
105 l21 56 19 -21 c11 -11 31 -24 45 -27z m-247 -10 c-10 -13 -10 -17 0 -23 9
-6 5 -10 -12 -15 -18 -4 -25 -12 -23 -24 19 -98 17 -160 -8 -238 l-26 -81 -57
-13 c-32 -7 -72 -19 -90 -28 -27 -13 -35 -13 -48 -2 -27 23 -65 96 -70 135 -3
20 -9 44 -14 53 -14 28 -21 82 -11 82 18 0 10 20 -7 20 -16 1 -16 2 1 15 11 8
17 15 13 15 -16 0 -124 -60 -161 -89 -21 -17 -41 -31 -44 -31 -10 0 24 34 58
57 94 63 126 93 69 62 -11 -5 -28 -9 -37 -7 -24 6 108 71 193 96 80 24 111 28
214 30 66 2 72 0 60 -14z m637 -115 c18 -20 18 -21 0 -35 -11 -7 -32 -25 -47
-38 -18 -16 -34 -23 -48 -19 -23 6 -28 -6 -9 -25 25 -25 -2 -23 -36 3 -39 30
-44 40 -21 49 8 3 15 12 15 20 0 21 69 66 101 66 14 0 34 -9 45 -21z m-1188
-62 c-31 -28 -54 -58 -51 -65 2 -6 10 -9 16 -5 13 7 -1 -13 -46 -66 -16 -18
-38 -53 -50 -77 -16 -33 -25 -43 -38 -39 -14 5 -21 -3 -29 -32 -7 -22 -10 -50
-8 -63 3 -23 5 -22 25 15 12 22 22 35 23 29 0 -12 98 -43 145 -46 39 -2 123
-23 159 -39 31 -14 30 -6 10 -131 -6 -38 -21 -47 -41 -27 -7 7 -22 13 -35 15
-48 8 -84 16 -103 24 -11 4 -53 20 -93 34 l-73 26 -6 -30 c-9 -46 -24 -36 -17
12 5 30 4 39 -4 34 -7 -4 -12 -20 -12 -36 0 -16 -5 -32 -11 -36 -15 -9 -5
-162 14 -226 8 -27 12 -46 7 -43 -4 2 -16 33 -26 67 -25 87 -25 279 0 363 42
138 113 246 219 336 87 73 102 77 25 6z m1202 -128 c15 -28 5 -23 -15 7 -9 15
-12 23 -6 20 6 -4 16 -16 21 -27z m-639 -20 c-5 -13 -10 -19 -10 -12 -1 15 10
45 15 40 3 -2 0 -15 -5 -28z m-816 -41 c-67 -127 -97 -270 -60 -285 13 -4 11
-11 -12 -34 -34 -34 -42 -35 -93 -9 -22 11 -55 20 -75 20 -22 0 -34 4 -30 10
3 6 21 10 39 10 19 0 39 7 46 15 7 8 18 15 25 15 21 0 42 32 87 135 40 90 92
185 102 185 2 0 -11 -28 -29 -62z m1645 -29 c0 -9 -7 -20 -16 -23 -25 -10
-104 -7 -105 4 -1 6 -2 15 -3 22 -1 6 22 19 49 29 45 15 51 15 63 1 6 -9 12
-23 12 -33z m-430 -7 c0 -13 -66 -40 -154 -62 -92 -23 -119 -25 -114 -7 3 6
63 26 134 43 71 18 130 32 132 33 1 1 2 -3 2 -7z m-494 -18 c-3 -9 -6 -22 -6
-30 0 -8 -8 -14 -17 -14 -10 0 -37 -9 -60 -20 -60 -27 -53 -16 10 16 28 15 46
29 40 31 -24 8 -14 33 13 33 20 0 25 -4 20 -16z m768 -26 c26 -62 26 -83 1
-29 -27 57 -28 61 -19 61 3 0 11 -15 18 -32z m-904 -72 c0 -2 -8 -10 -17 -17
-16 -13 -17 -12 -4 4 13 16 21 21 21 13z m-70 -98 c-11 -24 -20 -52 -20 -63
l-1 -20 -11 20 c-6 11 -15 23 -21 26 -15 10 -3 44 15 44 10 0 25 8 35 18 24
24 24 22 3 -25z m1049 -118 c0 -30 -6 -73 -13 -95 -12 -37 -12 -33 -14 75 -1
63 -4 130 -7 150 -4 27 0 23 15 -20 10 -30 19 -80 19 -110z m35 89 l7 -47 59
-6 c58 -7 60 -8 60 -36 l0 -30 -64 0 c-74 0 -74 -1 -75 95 -1 33 -4 69 -7 80
-4 15 -3 17 4 5 5 -8 13 -36 16 -61z m-1557 -81 c-3 -7 -5 -2 -5 12 0 14 2 19
5 13 2 -7 2 -19 0 -25z m1078 -27 c-3 -9 -18 -23 -34 -32 l-28 -17 7 35 c5 19
16 43 26 54 18 20 18 20 26 -2 5 -12 6 -29 3 -38z m401 17 c9 -14 -23 -38 -52
-38 -29 0 -39 16 -24 35 15 18 66 20 76 3z m-249 -40 c65 -28 68 -43 7 -33
-64 9 -74 14 -74 36 0 24 4 24 67 -3z m-748 -46 c20 -39 80 -94 136 -126 26
-15 27 -16 5 -10 -67 17 -90 34 -129 95 -23 35 -41 67 -41 71 0 17 10 6 29
-30z m56 18 c3 -5 15 -15 27 -21 18 -10 19 -8 13 13 -7 22 -6 21 22 -6 28 -27
29 -31 14 -48 -8 -10 -23 -18 -33 -18 -18 0 -68 58 -68 78 0 15 17 16 25 2z
m426 -59 c-18 -27 -39 -55 -48 -63 -9 -7 -6 4 9 27 14 22 33 53 42 68 10 16
20 26 23 23 3 -3 -9 -28 -26 -55z m-428 -135 c15 -10 27 -21 27 -25 0 -3 -15
-22 -33 -41 -17 -20 -43 -57 -57 -82 -13 -26 -34 -49 -45 -53 -11 -3 -32 -22
-47 -42 -23 -30 -26 -39 -15 -51 10 -13 8 -13 -18 0 -16 9 -44 19 -62 22 -23
5 -46 26 -87 77 -31 39 -56 76 -56 82 0 8 3 8 11 0 8 -8 20 -2 42 21 18 18 61
55 97 83 36 28 77 66 93 83 l27 32 48 -44 c26 -25 60 -53 75 -62z m996 53 c-6
-24 -12 -50 -12 -56 0 -13 -17 -19 -17 -6 0 14 34 113 37 109 3 -2 -1 -24 -8
-47z m415 5 c13 -12 16 -39 16 -124 0 -97 -2 -110 -19 -119 -10 -6 -21 -7 -25
-4 -8 8 -8 226 0 247 8 20 9 20 28 0z m-2414 -139 c0 -101 -2 -113 -17 -111
-25 2 -32 45 -26 147 5 78 8 86 24 82 17 -5 19 -17 19 -118z m1597 61 c33 -52
39 -83 18 -106 -10 -11 -24 -20 -32 -20 -16 0 -93 68 -93 83 0 14 61 77 74 77
6 0 21 -16 33 -34z m745 2 c-9 -9 -12 -7 -12 12 0 19 3 21 12 12 9 -9 9 -15 0
-24z m-292 -38 c14 -10 21 -22 17 -26 -4 -4 -20 4 -35 19 -31 31 -19 36 18 7z
m-1466 -172 c15 -16 23 -28 17 -28 -13 0 -62 53 -103 112 -29 42 -29 42 13 -7
24 -27 57 -62 73 -77z m1060 91 c-16 -17 -38 -35 -49 -40 -11 -6 0 8 25 30 54
48 65 53 24 10z m38 -66 c26 -23 22 -40 -12 -58 -23 -12 -35 -13 -50 -5 -26
14 -25 28 2 57 26 27 35 28 60 6z m56 -42 c-9 -15 -8 -22 5 -35 8 -9 20 -16
26 -16 15 0 54 -79 47 -95 -3 -8 -15 -19 -28 -26 -21 -11 -22 -11 -9 4 12 15
10 22 -14 57 -15 22 -35 40 -44 40 -10 0 -22 5 -28 11 -8 8 -20 6 -44 -6 l-34
-16 30 26 c26 23 95 73 103 74 1 1 -3 -8 -10 -18z m-1050 -63 c7 -9 5 -20 -9
-37 -16 -19 -22 -21 -34 -11 -13 10 -12 15 3 36 20 27 26 29 40 12z m1017
-158 c-3 -5 -12 -10 -18 -10 -7 0 -6 4 3 10 19 12 23 12 15 0z m-1652 -185 c5
-15 0 -24 -23 -37 -28 -16 -29 -16 -45 8 -9 14 -19 46 -22 72 -5 43 -3 49 18
59 22 10 25 8 45 -36 12 -25 24 -55 27 -66z m2360 92 c16 -11 16 -19 7 -64
-13 -60 -29 -78 -62 -67 -13 4 -26 7 -30 6 -4 -1 4 28 18 63 13 36 24 68 24
70 0 10 26 5 43 -8z m-968 -7 c-3 -5 -14 -10 -23 -9 -14 0 -13 2 3 9 27 11 27
11 20 0z m-95 -20 c-14 -4 -34 -8 -45 -9 -16 -1 -17 1 -5 9 8 5 29 9 45 9 29
-1 29 -1 5 -9z m-780 -256 c0 -9 -7 -14 -17 -12 -25 5 -28 28 -4 28 12 0 21
-6 21 -16z m1541 -41 c-6 -34 -10 -38 -51 -50 -25 -8 -63 -12 -85 -11 -36 3
-40 6 -40 31 -1 20 5 29 20 32 11 3 47 11 80 19 86 20 83 21 76 -21z m-1688 6
c73 -11 73 -11 69 -40 -4 -29 -5 -29 -66 -28 -92 2 -110 9 -114 47 -4 37 -2
38 111 21z m952 -9 c55 0 95 -4 89 -8 -17 -11 -25 -42 -11 -44 7 -1 -33 -4
-88 -8 -102 -6 -380 0 -357 7 6 3 12 15 12 28 0 24 2 24 108 28 59 2 116 2
127 0 11 -1 65 -3 120 -3z"/>
</g>
</svg>
